<?xml version="1.0" encoding="utf-8"?>
<!-- Generator: Adobe Illustrator 19.2.0, SVG Export Plug-In . SVG Version: 6.00 Build 0)  -->
<!DOCTYPE svg PUBLIC "-//W3C//DTD SVG 1.1//EN" "http://www.w3.org/Graphics/SVG/1.1/DTD/svg11.dtd">
<svg version="1.1" id="Layer_1" xmlns="http://www.w3.org/2000/svg" xmlns:xlink="http://www.w3.org/1999/xlink" x="0px" y="0px"
	 viewBox="0 0 230 90" style="enable-background:new 0 0 230 90;" xml:space="preserve">
<style type="text/css">
	.st0{fill:#9DC62C;}
	.st1{fill:#009CC6;}
	.st2{fill:#1CB597;}
	.st3{fill:#FFFFFF;}
	.st4{fill:#86919B;}
</style>
<path class="st0" d="M34.6,24.7c-5.5,0-9.9,4.4-9.9,9.7c0,5.4,4.4,9.7,9.9,9.7c5.5,0,9.9-4.4,9.9-9.7C44.5,29,40,24.7,34.6,24.7z
	 M34.6,39.1c-2.7,0-4.8-2.1-4.8-4.7c0-2.6,2.2-4.7,4.8-4.7c2.7,0,4.8,2.1,4.8,4.7C39.4,37,37.3,39.1,34.6,39.1z"/>
<path class="st1" d="M34.6,18.3c-1.3,0-2.4,1.1-2.4,2.4s1.1,2.4,2.4,2.4C40.9,23,46,28.1,46,34.4c0,6.3-5.1,11.4-11.4,11.4
	s-11.4-5.1-11.4-11.4c0-1.3-1.1-2.4-2.4-2.4c-1.3,0-2.4,1.1-2.4,2.4c0,8.9,7.2,16.1,16.1,16.1s16.1-7.2,16.1-16.1
	S43.5,18.3,34.6,18.3z"/>
<path class="st2" d="M53.8,38.9c-0.6-0.2-1.2-0.2-1.7,0.1c-0.5,0.3-1,0.7-1.2,1.3c-2.5,6.9-9.1,11.6-16.5,11.6
	c-9.7,0-17.6-7.9-17.6-17.6s7.9-17.6,17.6-17.6c6.1,0,11.7,3.1,15,8.4c0.3,0.5,0.8,0.9,1.4,1c0.6,0.1,1.2,0,1.7-0.3
	c0.5-0.3,0.9-0.8,1-1.4s0-1.2-0.3-1.7c-4.1-6.6-11.1-10.5-18.8-10.5c-12.2,0-22.1,9.9-22.1,22.1s9.9,22.1,22.1,22.1
	c9.3,0,17.7-5.9,20.8-14.6C55.6,40.7,55,39.4,53.8,38.9z"/>
<path class="st0" d="M34.4,6.1C18.8,6.1,6.1,18.8,6.1,34.4c0,5.3,1.5,10.6,4.3,15.1c0.3,0.5,0.8,0.9,1.4,1c0.6,0.1,1.2,0,1.7-0.3
	c0.5-0.3,0.9-0.8,1-1.4c0.1-0.6,0-1.2-0.3-1.7c-2.4-3.8-3.6-8.2-3.6-12.6c0-13.1,10.7-23.8,23.8-23.8c13.1,0,23.8,10.7,23.8,23.8
	c0,7.3-3.3,14.1-9,18.6c-1,0.8-1.1,2.2-0.4,3.2c0.4,0.5,1.1,0.9,1.8,0.9c0.5,0,1-0.2,1.4-0.5c6.8-5.4,10.7-13.5,10.7-22.2
	C62.7,18.8,50,6.1,34.4,6.1z"/>
<path class="st1" d="M34.4,0c-1.3,0-2.3,1-2.3,2.3s1,2.3,2.3,2.3c16.5,0,29.8,13.4,29.8,29.8c0,16.5-13.4,29.8-29.8,29.8
	c-16.5,0-29.8-13.4-29.8-29.8c0-1.3-1-2.3-2.3-2.3S0,33.1,0,34.4c0,19,15.4,34.4,34.4,34.4s34.4-15.4,34.4-34.4
	C68.8,15.4,53.4,0,34.4,0z"/>
<path id="XMLID_3490_" class="st3" d="M164.3,47.2l2.9-4.8l-3.8-4.7l-3.1,5L146,25.5c-0.9-0.9-1.4-2.1-1.4-3.4
	c0-2.7,2.2-4.9,4.9-4.9c2.7,0,4.9,2.2,4.9,4.9h5.7c0-5.8-4.7-10.6-10.6-10.6c-5.8,0-10.6,4.7-10.6,10.6c0,2.6,1,5.1,2.7,7
	c-4.9,2.6-8,7.8-8,13.5c0,8.5,6.9,15.4,15.4,15.4c4.8,0,9.2-2.2,12.1-5.9l3.3,4l7.4,0L164.3,47.2z M148.9,52.3
	c-5.3,0-9.6-4.3-9.6-9.6c0-4,2.5-7.5,6.2-9l11.7,13.9C155.5,50.5,152.4,52.3,148.9,52.3z"/>
<g id="XMLID_3488_">
	<path id="XMLID_3489_" class="st3" d="M122.8,16.9c-1.6,2.8-3.1,5.3-4.3,7.3c-5.5-2.5-8.4-3.8-13.3-4.6c-2.4-0.4-12.3-0.4-11.7,5
		c0.1,1,1.8,2.3,3,2.5c5,0.8,10.2,0.9,15.2,1.7c17.3,2.9,14.4,23.1,3.9,26.9c-11,3.9-24,1.7-35.5-4.5c1.7-3.2,3.2-6.1,4.9-9.1
		c7.2,3.6,14.3,6.4,22.3,5.2c1-0.1,5.3-0.9,5.8-4.9c0.2-1.3-2-3.3-3.5-3.7c-3.2-0.9-13.4-1.4-15.2-1.6c-7.2-0.9-11.5-4.2-12.1-9.3
		c-0.9-6.8,2.8-12.7,9.4-15.3C101.4,8.6,112.8,10.5,122.8,16.9z"/>
</g>
<path id="XMLID_3485_" class="st3" d="M228.1,21c-1.7-4.9-7-8.6-13.5-8.6c-32.4,0-32.4,0-32.4,0v45.1l11,0v-16c0,0,12.8,0,20.2,0
	c3.9,0,7.7-0.5,10.8-3.3C228.5,34.2,230.2,27,228.1,21z M213,30.8c-2.8,0-19.9,0-19.9,0v-7.4c0,0,14-0.1,19.8,0
	c2.3,0,4.6,0.7,4.6,3.6C217.6,30.1,215.7,30.8,213,30.8z"/>
<g>
	<path class="st4" d="M140.5,90c-0.9,0-6.1,0-6.1,0l3.1-16.2c0,0,5.1,0,5.3,0c4.6,0,8.1,2.4,8.1,6.9C151.1,85.6,148.1,90,140.5,90z
		 M142.5,77.1c-0.2,0-1.4,0-1.4,0l-1.9,9.6h2c3.3,0,5.7-2,5.7-5.8C146.9,78.3,145.1,77.1,142.5,77.1z"/>
	<path class="st4" d="M176.1,90H172l-0.5-3.4h-6.2l-1.9,3.4h-4.3l9.4-16.2h5.1L176.1,90z M170.5,77.2l-3.4,6.1h4.1L170.5,77.2z"/>
	<path class="st4" d="M196.2,77.3L193.7,90h-4.1l2.5-12.7h-5.2l0.7-3.5H202l-0.6,3.5H196.2z"/>
	<path class="st4" d="M223.9,90h-4.1l-0.5-3.4h-6.2l-1.9,3.4h-4.3l9.4-16.2h5.1L223.9,90z M218.3,77.2l-3.4,6.1h4.1L218.3,77.2z"/>
</g>
</svg>
